<mxfile host="app.diagrams.net" modified="2024-03-03T10:45:35.672Z" agent="Mozilla/5.0 (Windows NT 10.0; Win64; x64) AppleWebKit/537.36 (KHTML, like Gecko) Chrome/122.0.0.0 Safari/537.36" etag="F3QzSVzx2GUTTuyZTPSb" version="24.0.1" type="device">
  <diagram name="Page-1" id="XsMPrTZxrCEQG70W7dQr">
    <mxGraphModel dx="1235" dy="655" grid="0" gridSize="10" guides="1" tooltips="1" connect="1" arrows="0" fold="1" page="1" pageScale="1" pageWidth="1400" pageHeight="850" background="#000000" math="0" shadow="0">
      <root>
        <mxCell id="0" />
        <mxCell id="1" parent="0" />
        <mxCell id="gjU-NSOUM0VRxV0mB9jo-2" style="edgeStyle=orthogonalEdgeStyle;rounded=0;orthogonalLoop=1;jettySize=auto;html=1;exitX=1;exitY=0.5;exitDx=0;exitDy=0;" edge="1" parent="1" source="gjU-NSOUM0VRxV0mB9jo-1">
          <mxGeometry relative="1" as="geometry">
            <mxPoint x="354.00006103515625" y="108.19999694824219" as="targetPoint" />
          </mxGeometry>
        </mxCell>
        <mxCell id="gjU-NSOUM0VRxV0mB9jo-1" value="" style="rounded=0;whiteSpace=wrap;html=1;fillColor=#647687;fontColor=#ffffff;strokeColor=#314354;" vertex="1" parent="1">
          <mxGeometry x="104" y="55" width="261" height="50" as="geometry" />
        </mxCell>
        <mxCell id="gjU-NSOUM0VRxV0mB9jo-3" value="" style="endArrow=none;html=1;rounded=0;entryX=0.5;entryY=0;entryDx=0;entryDy=0;exitX=0.5;exitY=1;exitDx=0;exitDy=0;strokeColor=#FFFFFF;" edge="1" parent="1" source="gjU-NSOUM0VRxV0mB9jo-1" target="gjU-NSOUM0VRxV0mB9jo-1">
          <mxGeometry width="50" height="50" relative="1" as="geometry">
            <mxPoint x="511" y="315" as="sourcePoint" />
            <mxPoint x="561" y="265" as="targetPoint" />
          </mxGeometry>
        </mxCell>
        <mxCell id="gjU-NSOUM0VRxV0mB9jo-4" value="&lt;font color=&quot;#ffffff&quot; style=&quot;font-size: 16px;&quot;&gt;USER&lt;/font&gt;" style="text;html=1;align=center;verticalAlign=middle;whiteSpace=wrap;rounded=0;" vertex="1" parent="1">
          <mxGeometry x="104" y="20" width="60" height="30" as="geometry" />
        </mxCell>
        <mxCell id="gjU-NSOUM0VRxV0mB9jo-5" value="" style="rounded=0;whiteSpace=wrap;html=1;fillColor=#647687;fontColor=#ffffff;strokeColor=#FFFFFF;" vertex="1" parent="1">
          <mxGeometry x="104" y="194" width="977" height="60" as="geometry" />
        </mxCell>
        <mxCell id="gjU-NSOUM0VRxV0mB9jo-6" value="" style="endArrow=none;html=1;rounded=0;exitX=0.066;exitY=0.983;exitDx=0;exitDy=0;exitPerimeter=0;strokeColor=#FFFFFF;" edge="1" parent="1" source="gjU-NSOUM0VRxV0mB9jo-5">
          <mxGeometry width="50" height="50" relative="1" as="geometry">
            <mxPoint x="676" y="313" as="sourcePoint" />
            <mxPoint x="169" y="193" as="targetPoint" />
          </mxGeometry>
        </mxCell>
        <mxCell id="gjU-NSOUM0VRxV0mB9jo-7" value="" style="endArrow=none;html=1;rounded=0;exitX=0.069;exitY=0.988;exitDx=0;exitDy=0;exitPerimeter=0;strokeColor=#FFFFFF;" edge="1" parent="1">
          <mxGeometry width="50" height="50" relative="1" as="geometry">
            <mxPoint x="237" y="254" as="sourcePoint" />
            <mxPoint x="237" y="194" as="targetPoint" />
          </mxGeometry>
        </mxCell>
        <mxCell id="gjU-NSOUM0VRxV0mB9jo-8" value="" style="endArrow=none;html=1;rounded=0;exitX=0.069;exitY=0.988;exitDx=0;exitDy=0;exitPerimeter=0;strokeColor=#FFFFFF;" edge="1" parent="1">
          <mxGeometry width="50" height="50" relative="1" as="geometry">
            <mxPoint x="313" y="254" as="sourcePoint" />
            <mxPoint x="313" y="194" as="targetPoint" />
          </mxGeometry>
        </mxCell>
        <mxCell id="gjU-NSOUM0VRxV0mB9jo-9" value="" style="endArrow=none;html=1;rounded=0;exitX=0.069;exitY=0.988;exitDx=0;exitDy=0;exitPerimeter=0;strokeColor=#FFFFFF;" edge="1" parent="1">
          <mxGeometry width="50" height="50" relative="1" as="geometry">
            <mxPoint x="376" y="254" as="sourcePoint" />
            <mxPoint x="376" y="194" as="targetPoint" />
          </mxGeometry>
        </mxCell>
        <mxCell id="gjU-NSOUM0VRxV0mB9jo-10" value="" style="endArrow=none;html=1;rounded=0;exitX=0.069;exitY=0.988;exitDx=0;exitDy=0;exitPerimeter=0;strokeColor=#FFFFFF;" edge="1" parent="1">
          <mxGeometry width="50" height="50" relative="1" as="geometry">
            <mxPoint x="444" y="254" as="sourcePoint" />
            <mxPoint x="444" y="194" as="targetPoint" />
          </mxGeometry>
        </mxCell>
        <mxCell id="gjU-NSOUM0VRxV0mB9jo-11" value="" style="endArrow=none;html=1;rounded=0;exitX=0.069;exitY=0.988;exitDx=0;exitDy=0;exitPerimeter=0;strokeColor=#FFFFFF;" edge="1" parent="1">
          <mxGeometry width="50" height="50" relative="1" as="geometry">
            <mxPoint x="514" y="254" as="sourcePoint" />
            <mxPoint x="514" y="194" as="targetPoint" />
          </mxGeometry>
        </mxCell>
        <mxCell id="gjU-NSOUM0VRxV0mB9jo-12" value="" style="endArrow=none;html=1;rounded=0;exitX=0.069;exitY=0.988;exitDx=0;exitDy=0;exitPerimeter=0;strokeColor=#FFFFFF;" edge="1" parent="1">
          <mxGeometry width="50" height="50" relative="1" as="geometry">
            <mxPoint x="584" y="254" as="sourcePoint" />
            <mxPoint x="584" y="194" as="targetPoint" />
          </mxGeometry>
        </mxCell>
        <mxCell id="gjU-NSOUM0VRxV0mB9jo-13" value="" style="endArrow=none;html=1;rounded=0;exitX=0.069;exitY=0.988;exitDx=0;exitDy=0;exitPerimeter=0;strokeColor=#FFFFFF;" edge="1" parent="1">
          <mxGeometry width="50" height="50" relative="1" as="geometry">
            <mxPoint x="657" y="254" as="sourcePoint" />
            <mxPoint x="657" y="194" as="targetPoint" />
          </mxGeometry>
        </mxCell>
        <mxCell id="gjU-NSOUM0VRxV0mB9jo-14" value="" style="endArrow=none;html=1;rounded=0;exitX=0.069;exitY=0.988;exitDx=0;exitDy=0;exitPerimeter=0;strokeColor=#FFFFFF;" edge="1" parent="1">
          <mxGeometry width="50" height="50" relative="1" as="geometry">
            <mxPoint x="727" y="254" as="sourcePoint" />
            <mxPoint x="727" y="194" as="targetPoint" />
          </mxGeometry>
        </mxCell>
        <mxCell id="gjU-NSOUM0VRxV0mB9jo-15" value="" style="endArrow=none;html=1;rounded=0;exitX=0.069;exitY=0.988;exitDx=0;exitDy=0;exitPerimeter=0;strokeColor=#FFFFFF;" edge="1" parent="1">
          <mxGeometry width="50" height="50" relative="1" as="geometry">
            <mxPoint x="795" y="254" as="sourcePoint" />
            <mxPoint x="795" y="194" as="targetPoint" />
          </mxGeometry>
        </mxCell>
        <mxCell id="gjU-NSOUM0VRxV0mB9jo-16" value="" style="endArrow=none;html=1;rounded=0;exitX=0.069;exitY=0.988;exitDx=0;exitDy=0;exitPerimeter=0;strokeColor=#FFFFFF;" edge="1" parent="1">
          <mxGeometry width="50" height="50" relative="1" as="geometry">
            <mxPoint x="874" y="254" as="sourcePoint" />
            <mxPoint x="874" y="194" as="targetPoint" />
          </mxGeometry>
        </mxCell>
        <mxCell id="gjU-NSOUM0VRxV0mB9jo-17" value="" style="endArrow=none;html=1;rounded=0;exitX=0.069;exitY=0.988;exitDx=0;exitDy=0;exitPerimeter=0;strokeColor=#FFFFFF;" edge="1" parent="1">
          <mxGeometry width="50" height="50" relative="1" as="geometry">
            <mxPoint x="950" y="254" as="sourcePoint" />
            <mxPoint x="950" y="194" as="targetPoint" />
          </mxGeometry>
        </mxCell>
        <mxCell id="gjU-NSOUM0VRxV0mB9jo-18" value="" style="endArrow=none;html=1;rounded=0;exitX=0.069;exitY=0.988;exitDx=0;exitDy=0;exitPerimeter=0;strokeColor=#FFFFFF;" edge="1" parent="1">
          <mxGeometry width="50" height="50" relative="1" as="geometry">
            <mxPoint x="999" y="254" as="sourcePoint" />
            <mxPoint x="999" y="194" as="targetPoint" />
          </mxGeometry>
        </mxCell>
        <mxCell id="gjU-NSOUM0VRxV0mB9jo-19" value="&lt;font color=&quot;#ffffff&quot; style=&quot;font-size: 16px;&quot;&gt;Volunteer&lt;/font&gt;" style="text;html=1;align=center;verticalAlign=middle;whiteSpace=wrap;rounded=0;" vertex="1" parent="1">
          <mxGeometry x="116" y="164" width="60" height="30" as="geometry" />
        </mxCell>
        <mxCell id="gjU-NSOUM0VRxV0mB9jo-20" value="" style="rounded=0;whiteSpace=wrap;html=1;fillColor=#647687;fontColor=#ffffff;strokeColor=#FFFFFF;" vertex="1" parent="1">
          <mxGeometry x="104" y="333" width="646" height="60" as="geometry" />
        </mxCell>
        <mxCell id="gjU-NSOUM0VRxV0mB9jo-21" value="" style="rounded=0;whiteSpace=wrap;html=1;fillColor=#647687;fontColor=#ffffff;strokeColor=#FFFFFF;" vertex="1" parent="1">
          <mxGeometry x="104" y="473" width="977" height="60" as="geometry" />
        </mxCell>
        <mxCell id="gjU-NSOUM0VRxV0mB9jo-22" value="" style="rounded=0;whiteSpace=wrap;html=1;fillColor=#647687;fontColor=#ffffff;strokeColor=#FFFFFF;" vertex="1" parent="1">
          <mxGeometry x="104" y="587" width="977" height="60" as="geometry" />
        </mxCell>
        <mxCell id="gjU-NSOUM0VRxV0mB9jo-24" value="" style="rounded=0;whiteSpace=wrap;html=1;fillColor=#647687;fontColor=#ffffff;strokeColor=#FFFFFF;" vertex="1" parent="1">
          <mxGeometry x="104" y="717" width="977" height="60" as="geometry" />
        </mxCell>
        <mxCell id="gjU-NSOUM0VRxV0mB9jo-26" value="" style="endArrow=none;html=1;rounded=0;exitX=0.5;exitY=0;exitDx=0;exitDy=0;entryX=0.5;entryY=1;entryDx=0;entryDy=0;strokeColor=#FFFFFF;" edge="1" parent="1" source="gjU-NSOUM0VRxV0mB9jo-20" target="gjU-NSOUM0VRxV0mB9jo-20">
          <mxGeometry width="50" height="50" relative="1" as="geometry">
            <mxPoint x="469" y="304" as="sourcePoint" />
            <mxPoint x="519" y="254" as="targetPoint" />
          </mxGeometry>
        </mxCell>
        <mxCell id="gjU-NSOUM0VRxV0mB9jo-27" value="" style="endArrow=none;html=1;rounded=0;entryX=0.75;entryY=1;entryDx=0;entryDy=0;exitX=0.75;exitY=0;exitDx=0;exitDy=0;strokeColor=#FFFFFF;" edge="1" parent="1" source="gjU-NSOUM0VRxV0mB9jo-20" target="gjU-NSOUM0VRxV0mB9jo-20">
          <mxGeometry width="50" height="50" relative="1" as="geometry">
            <mxPoint x="469" y="304" as="sourcePoint" />
            <mxPoint x="519" y="254" as="targetPoint" />
          </mxGeometry>
        </mxCell>
        <mxCell id="gjU-NSOUM0VRxV0mB9jo-28" value="" style="endArrow=none;html=1;rounded=0;exitX=0.5;exitY=0;exitDx=0;exitDy=0;entryX=0.5;entryY=1;entryDx=0;entryDy=0;strokeColor=#FFFFFF;" edge="1" parent="1">
          <mxGeometry width="50" height="50" relative="1" as="geometry">
            <mxPoint x="340" y="333" as="sourcePoint" />
            <mxPoint x="340" y="393" as="targetPoint" />
          </mxGeometry>
        </mxCell>
        <mxCell id="gjU-NSOUM0VRxV0mB9jo-31" value="" style="endArrow=none;html=1;rounded=0;entryX=0.75;entryY=1;entryDx=0;entryDy=0;exitX=0.75;exitY=0;exitDx=0;exitDy=0;strokeColor=#FFFFFF;" edge="1" parent="1">
          <mxGeometry width="50" height="50" relative="1" as="geometry">
            <mxPoint x="517.5" y="333" as="sourcePoint" />
            <mxPoint x="517.5" y="393" as="targetPoint" />
          </mxGeometry>
        </mxCell>
        <mxCell id="gjU-NSOUM0VRxV0mB9jo-32" value="" style="endArrow=none;html=1;rounded=0;exitX=0.148;exitY=0.012;exitDx=0;exitDy=0;exitPerimeter=0;" edge="1" parent="1" source="gjU-NSOUM0VRxV0mB9jo-20">
          <mxGeometry width="50" height="50" relative="1" as="geometry">
            <mxPoint x="469" y="304" as="sourcePoint" />
            <mxPoint x="198" y="395" as="targetPoint" />
          </mxGeometry>
        </mxCell>
        <mxCell id="gjU-NSOUM0VRxV0mB9jo-33" value="Text" style="text;html=1;align=center;verticalAlign=middle;whiteSpace=wrap;rounded=0;" vertex="1" parent="1">
          <mxGeometry x="464" y="381" width="60" height="30" as="geometry" />
        </mxCell>
      </root>
    </mxGraphModel>
  </diagram>
</mxfile>
